<svg id="Layer_1" data-name="Layer 1" xmlns="http://www.w3.org/2000/svg" xmlns:xlink="http://www.w3.org/1999/xlink" viewBox="0 0 2000 1153.46"><defs><style>.cls-1{fill:url(#linear-gradient);}.cls-2{fill:url(#linear-gradient-2);}.cls-3{fill:url(#linear-gradient-3);}.cls-4{fill:url(#linear-gradient-4);}.cls-5{fill:url(#linear-gradient-5);}.cls-6{fill:url(#linear-gradient-6);}.cls-7{fill:url(#linear-gradient-7);}.cls-8{fill:url(#linear-gradient-8);}.cls-9{fill:url(#linear-gradient-9);}</style><linearGradient id="linear-gradient" x1="1187.9" y1="644.5" x2="1187.9" y2="-53.95" gradientUnits="userSpaceOnUse"><stop offset="0" stop-color="#001b48"/><stop offset="0.33" stop-color="#018abe"/><stop offset="0.67" stop-color="#02457a"/><stop offset="1" stop-color="#001b48"/></linearGradient><linearGradient id="linear-gradient-2" x1="1801.69" y1="1088.61" x2="1801.69" y2="321.96" gradientUnits="userSpaceOnUse"><stop offset="0" stop-color="#018abe"/><stop offset="0.33" stop-color="#02457a"/><stop offset="0.64" stop-color="#001b48"/><stop offset="1" stop-color="#018abe"/></linearGradient><linearGradient id="linear-gradient-3" x1="1748.11" y1="443.74" x2="1748.11" y2="73.52" gradientUnits="userSpaceOnUse"><stop offset="0" stop-color="#018abe"/><stop offset="0.5" stop-color="#02457a"/><stop offset="1" stop-color="#001b48"/></linearGradient><linearGradient id="linear-gradient-4" x1="1056.37" y1="606.23" x2="1933.22" y2="606.23" gradientUnits="userSpaceOnUse"><stop offset="0" stop-color="#018abe"/><stop offset="0.58" stop-color="#02457a"/><stop offset="1" stop-color="#001b48"/></linearGradient><linearGradient id="linear-gradient-5" x1="1245.89" y1="1071.42" x2="1245.89" y2="712.28" xlink:href="#linear-gradient-3"/><linearGradient id="linear-gradient-6" x1="943.63" y1="605.29" x2="66.78" y2="605.29" xlink:href="#linear-gradient-4"/><linearGradient id="linear-gradient-7" x1="198.31" y1="535.25" x2="198.31" y2="1140.64" gradientUnits="userSpaceOnUse"><stop offset="0" stop-color="#018abe"/><stop offset="0.5" stop-color="#02457a"/><stop offset="0.96" stop-color="#001b48"/></linearGradient><linearGradient id="linear-gradient-8" x1="754.11" y1="1055.44" x2="754.11" y2="694.03" xlink:href="#linear-gradient-3"/><linearGradient id="linear-gradient-9" x1="66.78" y1="411.82" x2="943.63" y2="411.82" xlink:href="#linear-gradient-4"/></defs><path class="cls-1" d="M1056.37,65.77V772a329.53,329.53,0,0,1,5.63-60.83c22.23-118.9,108.46-215.26,221.55-252,.31-.11.62-.21.92-.29a324.85,324.85,0,0,1,35-9.16V278.63c-.64-1.09-1.26-2.18-1.87-3.27a196.29,196.29,0,0,0,0-54.06c-.35-2.57-.74-5.1-1.2-7.63a195,195,0,0,0-260-147.9Z"/><path class="cls-2" d="M1670.17,704.62V906.07a195.65,195.65,0,0,0,1.87,27c.35,2.56.74,5.11,1.2,7.62v0a195,195,0,0,0,260,147.9V382.33a329.86,329.86,0,0,1-5.63,60.86c-22.23,118.88-108.44,215.25-221.53,252a8.52,8.52,0,0,1-.94.3A321.29,321.29,0,0,1,1670.17,704.62Z"/><path class="cls-3" d="M1563,443.19h175.37a195,195,0,0,0,186.05-136.77v0a195.64,195.64,0,0,0,0-116.16v0A195,195,0,0,0,1680.3,62.28h0c-3.43,1.07-6.8,2.22-10.11,3.49V336a107.24,107.24,0,0,1-92.11,106.11H1578A104.82,104.82,0,0,1,1563,443.19Z"/><path class="cls-4" d="M1056.37,772v134a194.32,194.32,0,0,0,8.81,58.06,324.87,324.87,0,0,1,19.66-58.08c41.29-92.4,124-162.28,224.47-186h0c3.35-.82,6.7-1.56,10.09-2.24a329.78,329.78,0,0,1,65.83-6.59h219.11a329.43,329.43,0,0,0,65.81-6.59,321.29,321.29,0,0,0,34.95-9.15,8.52,8.52,0,0,0,.94-.3c113.09-36.73,199.3-133.1,221.53-252a329.86,329.86,0,0,0,5.63-60.86v-134a194.39,194.39,0,0,1-8.81,58.07v0a195,195,0,0,1-186.05,136.77H1385.25a330.52,330.52,0,0,0-65.83,6.58,324.85,324.85,0,0,0-35,9.16c-.3.08-.61.18-.92.29C1170.46,496,1084.23,592.31,1062,711.21A329.53,329.53,0,0,0,1056.37,772Z"/><path class="cls-5" d="M1065.18,964.13a195,195,0,0,0,244.13,128h0q5.12-1.59,10.09-3.47V818.38a107.26,107.26,0,0,1,92.11-106.12h.06a106.29,106.29,0,0,1,15-1h-41.35a329.78,329.78,0,0,0-65.83,6.59c-3.39.68-6.74,1.42-10.09,2.24h0c-100.51,23.73-183.18,93.61-224.47,186A324.87,324.87,0,0,0,1065.18,964.13Z"/><path class="cls-6" d="M943.63,771.11v134a194.32,194.32,0,0,1-8.81,58.06,324.87,324.87,0,0,0-19.66-58.08c-41.29-92.4-124-162.28-224.49-186q-5-1.2-10.09-2.22a329.63,329.63,0,0,0-65.83-6.59H395.64a330.32,330.32,0,0,1-65.81-6.58,323.63,323.63,0,0,1-34.95-9.16h0c-.29-.08-.61-.18-.92-.3-113.07-36.73-199.3-133.08-221.53-252a329.86,329.86,0,0,1-5.63-60.86v-134a194.52,194.52,0,0,0,8.81,58.09c1.6,5.12,3.39,10.15,5.41,15.08A194.88,194.88,0,0,0,261.64,442.25H614.75a329.87,329.87,0,0,1,63.82,6.19l2,.39A323.63,323.63,0,0,1,715.53,458a9,9,0,0,1,.92.29C829.56,495,915.77,591.37,938,710.27A329.56,329.56,0,0,1,943.63,771.11Z"/><path class="cls-7" d="M329.83,703.69V905.13a195.65,195.65,0,0,1-1.87,27c-.35,2.56-.74,5.11-1.2,7.62v0a195,195,0,0,1-260,147.92V381.39a329.86,329.86,0,0,0,5.63,60.86c22.23,118.9,108.46,215.25,221.53,252,.31.12.63.22.92.3h0A323.63,323.63,0,0,0,329.83,703.69Z"/><path class="cls-8" d="M934.82,963.19a195.12,195.12,0,0,1-244.13,128h0q-5.11-1.62-10.09-3.47V817.44a107.25,107.25,0,0,0-92.13-106.12h-.06a105.8,105.8,0,0,0-15-1.05h41.35a329.63,329.63,0,0,1,65.83,6.59q5.08,1,10.09,2.22c100.53,23.75,183.2,93.63,224.49,186A324.87,324.87,0,0,1,934.82,963.19Z"/><path class="cls-9" d="M943.63,247.39V771.11A329.56,329.56,0,0,0,938,710.27c-22.23-118.9-108.44-215.26-221.55-252a9,9,0,0,0-.92-.29,323.63,323.63,0,0,0-34.95-9.16v-21.1a107,107,0,0,0-46.24-88.15,106.52,106.52,0,0,0-60.94-19H329.83v14.52A107.22,107.22,0,0,0,422,441.19a104.82,104.82,0,0,0,15,1.06H261.64A194.88,194.88,0,0,1,81,320.56c-2-4.93-3.81-10-5.41-15.08a194.88,194.88,0,0,1,186-252.94H748.78C856.39,52.54,943.63,139.77,943.63,247.39Z"/></svg>