<svg id="Layer_1" data-name="Layer 1" xmlns="http://www.w3.org/2000/svg" xmlns:xlink="http://www.w3.org/1999/xlink" viewBox="0 0 2000 522.5"><defs><style>.cls-1{fill:#001b48;}.cls-2{fill:#02457a;}.cls-3{fill:#018abe;}.cls-4{fill:url(#linear-gradient);}.cls-5{fill:url(#linear-gradient-2);}.cls-6{fill:url(#linear-gradient-3);}.cls-7{fill:url(#linear-gradient-4);}.cls-8{fill:url(#linear-gradient-5);}.cls-9{fill:url(#linear-gradient-6);}.cls-10{fill:url(#linear-gradient-7);}.cls-11{fill:url(#linear-gradient-8);}.cls-12{fill:url(#linear-gradient-9);}</style><linearGradient id="linear-gradient" x1="449.52" y1="283.55" x2="449.52" y2="53.75" gradientUnits="userSpaceOnUse"><stop offset="0" stop-color="#001b48"/><stop offset="0.33" stop-color="#018abe"/><stop offset="0.67" stop-color="#02457a"/><stop offset="1" stop-color="#001b48"/></linearGradient><linearGradient id="linear-gradient-2" x1="651.46" y1="429.66" x2="651.46" y2="177.43" gradientUnits="userSpaceOnUse"><stop offset="0" stop-color="#018abe"/><stop offset="0.33" stop-color="#02457a"/><stop offset="0.64" stop-color="#001b48"/><stop offset="1" stop-color="#018abe"/></linearGradient><linearGradient id="linear-gradient-3" x1="633.83" y1="217.5" x2="633.83" y2="95.69" gradientUnits="userSpaceOnUse"><stop offset="0" stop-color="#018abe"/><stop offset="0.5" stop-color="#02457a"/><stop offset="1" stop-color="#001b48"/></linearGradient><linearGradient id="linear-gradient-4" x1="406.24" y1="270.96" x2="694.73" y2="270.96" gradientUnits="userSpaceOnUse"><stop offset="0" stop-color="#018abe"/><stop offset="0.58" stop-color="#02457a"/><stop offset="1" stop-color="#001b48"/></linearGradient><linearGradient id="linear-gradient-5" x1="468.6" y1="424" x2="468.6" y2="305.85" xlink:href="#linear-gradient-3"/><linearGradient id="linear-gradient-6" x1="369.15" y1="270.65" x2="80.66" y2="270.65" xlink:href="#linear-gradient-4"/><linearGradient id="linear-gradient-7" x1="123.94" y1="247.6" x2="123.94" y2="446.78" gradientUnits="userSpaceOnUse"><stop offset="0" stop-color="#018abe"/><stop offset="0.5" stop-color="#02457a"/><stop offset="0.96" stop-color="#001b48"/></linearGradient><linearGradient id="linear-gradient-8" x1="306.8" y1="418.75" x2="306.8" y2="299.84" xlink:href="#linear-gradient-3"/><linearGradient id="linear-gradient-9" x1="80.66" y1="206.99" x2="369.15" y2="206.99" xlink:href="#linear-gradient-4"/></defs><path class="cls-1" d="M891,139.08a60.54,60.54,0,0,0-117.64,20.18v71.53A20.17,20.17,0,0,0,793.53,251V199.62h80.72V251a20.18,20.18,0,0,0,20.18-20.18V159.26A60.52,60.52,0,0,0,891,139.08Zm-16.74,40.36H793.53V159.26a40.36,40.36,0,1,1,80.72,0Z"/><path class="cls-1" d="M1028,219.8v11A20.19,20.19,0,0,1,1007.83,251V219.8a40.37,40.37,0,0,0-79.68-9.16,40.63,40.63,0,0,0-1,9.16V251a20.17,20.17,0,0,1-20.18-20.18v-11a60.54,60.54,0,0,1,121.08,0Z"/><path class="cls-1" d="M1058.48,159.26v71.53A20.18,20.18,0,0,1,1038.3,251V179.44A20.18,20.18,0,0,1,1058.48,159.26Z"/><path class="cls-1" d="M1058.48,118.9a20.18,20.18,0,0,1-20.18,20.18A20.18,20.18,0,0,1,1058.48,118.9Z"/><path class="cls-1" d="M1188.59,215.21A28,28,0,0,1,1161.72,251h-93.11a20.18,20.18,0,0,1,20.18-20.18h72.93a7.79,7.79,0,0,0,0-15.58h-65.14a28,28,0,1,1,0-56h93.11a20.18,20.18,0,0,1-20.18,20.18h-72.93a7.8,7.8,0,0,0,0,15.59h65.14A28,28,0,0,1,1188.59,215.21Z"/><path class="cls-1" d="M1250.33,160.6c-.25,21.8-22.5,39.44-50.06,39.73C1203.44,180.11,1224,163.93,1250.33,160.6Z"/><path class="cls-1" d="M1249.93,250.94c-24.07-3.17-43.25-17.1-48.6-35C1226.39,216.61,1246.85,231.64,1249.93,250.94Z"/><path class="cls-1" d="M1319.43,215.93c-5.36,18-24.67,31.94-48.86,35C1273.64,231.59,1294.24,216.51,1319.43,215.93Z"/><path class="cls-1" d="M1320.49,200.33c-27.69-.18-50.1-17.88-50.32-39.76C1296.61,163.82,1317.31,180,1320.49,200.33Z"/><path class="cls-2" d="M1250.33,160.6c-.25,21.8-22.5,39.44-50.06,39.73C1203.44,180.11,1224,163.93,1250.33,160.6Z"/><path class="cls-2" d="M1249.93,250.94c-24.07-3.17-43.25-17.1-48.6-35C1226.39,216.61,1246.85,231.64,1249.93,250.94Z"/><path class="cls-2" d="M1319.43,215.93c-5.36,18-24.67,31.94-48.86,35C1273.64,231.59,1294.24,216.51,1319.43,215.93Z"/><path class="cls-2" d="M1320.49,200.33c-27.69-.18-50.1-17.88-50.32-39.76C1296.61,163.82,1317.31,180,1320.49,200.33Z"/><path class="cls-3" d="M1250.33,160.6c-.25,21.8-22.5,39.44-50.06,39.73C1203.44,180.11,1224,163.93,1250.33,160.6Z"/><path class="cls-3" d="M1249.93,250.94c-24.07-3.17-43.25-17.1-48.6-35C1226.39,216.61,1246.85,231.64,1249.93,250.94Z"/><path class="cls-3" d="M1319.43,215.93c-5.36,18-24.67,31.94-48.86,35C1273.64,231.59,1294.24,216.51,1319.43,215.93Z"/><path class="cls-3" d="M1320.49,200.33c-27.69-.18-50.1-17.88-50.32-39.76C1296.61,163.82,1317.31,180,1320.49,200.33Z"/><path class="cls-1" d="M1451.49,219.8v11A20.17,20.17,0,0,1,1431.31,251V219.8a40.37,40.37,0,0,0-79.68-9.16,40.63,40.63,0,0,0-1,9.16V251a20.17,20.17,0,0,1-20.18-20.18v-11a60.54,60.54,0,0,1,121.08,0Z"/><path class="cls-1" d="M1242.31,423.78H1202a20.18,20.18,0,0,1-20.18-20.18V311.89A20.17,20.17,0,0,1,1202,291.71V403.6h20.18A20.18,20.18,0,0,1,1242.31,423.78Z"/><path class="cls-1" d="M894.48,291.71V403.6h-.05a20.19,20.19,0,0,1-20.18,20.18v-66H793.53v66a20.18,20.18,0,0,1-20.18-20.18V291.71a20.17,20.17,0,0,1,20.18-20.18v66h80.72v-66a20.18,20.18,0,0,1,20.18,20.18Z"/><path class="cls-1" d="M1166.89,352.25a54.56,54.56,0,0,0-11.61-20.18,58,58,0,0,0-6.19-5.94,64.22,64.22,0,0,0-83.17,2.14l-.68.64c-1.06,1-2.09,2.07-3.06,3.16h-.29l-13.65,12.83,0,.05-7.76,7.3L1028,363.94l-.14.13-8.89,8.36-5.83,5.49-14.74,13.87h0a39.42,39.42,0,0,1-4.46,4.2h0a41.38,41.38,0,0,1-15,7.6,43.75,43.75,0,0,1-16,1.3,42.76,42.76,0,0,1-7-1.3c-13.24-3.63-23.64-13.37-27.38-25.68h63.1l7.82-7.36,24.41-23a55.18,55.18,0,0,0-9.91-15.53,63.79,63.79,0,0,0-93.11,0,54.54,54.54,0,0,0-11.6,20.18,53.16,53.16,0,0,0-1.4,5.49,52.25,52.25,0,0,0-.93,7.75v4.69q0,1.13.15,2.25a52.18,52.18,0,0,0,.78,5.49,54,54,0,0,0,13,25.68,60.92,60.92,0,0,0,25.67,16.76,64.93,64.93,0,0,0,20.89,3.42,63.25,63.25,0,0,0,39.91-13.88h0l6.31-5.93h0c.11-.11.22-.24.32-.35h.06L1028,390.49l12.09-11.37,7.11-6.69,1-.92,0-.05.07-.07,19.83-18.65.52-.49,8.87-8.34h0a35.39,35.39,0,0,1,5.39-5.06,39,39,0,0,1,13.24-6.46h0l.33-.31h.75a43.91,43.91,0,0,1,23,0,39.69,39.69,0,0,1,25.19,20.18,34.95,34.95,0,0,1,3.38,20.18c-2,14.86-13.41,27-28.57,31.17a43.91,43.91,0,0,1-23,0,39.81,39.81,0,0,1-24.61-19.07,35,35,0,0,1-4-12.1l-16.46,15.48c.27.65.55,1.3.85,1.94a55.39,55.39,0,0,0,9.12,13.75,62.46,62.46,0,0,0,46.55,20.18,63.2,63.2,0,0,0,40.36-14.25l.71-.6a20.19,20.19,0,0,0,19.47,14.85V367.83A51.94,51.94,0,0,0,1166.89,352.25Zm-236.1,0A39.69,39.69,0,0,1,956,332.07a43.91,43.91,0,0,1,23,0,39.69,39.69,0,0,1,25.19,20.18,34.67,34.67,0,0,1,2.18,5.49H928.6A35.69,35.69,0,0,1,930.79,352.25Z"/><path class="cls-1" d="M1310.87,423.78h-40.36a20.18,20.18,0,0,1-20.18-20.18V311.89a20.17,20.17,0,0,1,20.18-20.18v40.36h20.18a20.18,20.18,0,0,1,20.18,20.18h-40.36V403.6h20.18A20.18,20.18,0,0,1,1310.87,423.78Z"/><path class="cls-1" d="M1440,372.43V403.6a20.18,20.18,0,0,1-20.18,20.18V372.43a40.36,40.36,0,1,0-80.72,0v51.35a20.19,20.19,0,0,1-20.18-20.18V311.89a20.18,20.18,0,0,1,20.18-20.18V327.3A60.54,60.54,0,0,1,1440,372.43Z"/><path class="cls-1" d="M1689.93,326.13a64.21,64.21,0,0,0-83.16,2.14l-.68.64-17,16-20.24,19-.13.13-29.47,27.72a39.57,39.57,0,0,1-4.47,4.2,42.2,42.2,0,0,1-26.47,9.14c-22.29,0-40.36-16.7-40.36-37.3s18.07-37.29,40.36-37.29a44,44,0,0,1,9,.92l1.06.24a20.45,20.45,0,0,0,3.86.37,20.18,20.18,0,0,0,18.28-11.63,63.89,63.89,0,0,0-32.18-8.55c-2.12,0-4.22.1-6.28.3-29.66,2.82-53,25.43-54.2,53.3v4.69c1.32,29.81,27.9,53.6,60.48,53.6a63.18,63.18,0,0,0,39.92-13.89l6.31-5.93,14.31-13.47,20.24-19,.07-.07,28.89-27.17a36.56,36.56,0,0,1,6.49-6.12,33.53,33.53,0,0,1,12.47-5.72c8.18-1.84,8.18-1.84,12.56-1.84,22.29,0,40.36,16.69,40.36,37.29s-18.07,37.3-40.36,37.3c-20.68,0-37.74-14.39-40.08-32.93L1593,387.73c8.68,21.08,30.75,36,56.59,36a63.18,63.18,0,0,0,40.36-14.25l.72-.6a20.19,20.19,0,0,0,19.46,14.85V367.83C1710.11,351.26,1702.32,336.38,1689.93,326.13Z"/><path class="cls-1" d="M1806.19,315.23a20.19,20.19,0,0,1-19.91,16.84,40.36,40.36,0,0,0-40.36,40.36V403.6a20.16,20.16,0,0,1-20.18,20.18V311.89a20.2,20.2,0,0,1,19.72,15.84l.46-.43a60.7,60.7,0,0,1,60.27-12.07Z"/><path class="cls-1" d="M1918.35,357.74a50.69,50.69,0,0,0-1.39-5.49,54.56,54.56,0,0,0-11.61-20.18,63.79,63.79,0,0,0-93.11,0,54.4,54.4,0,0,0-11.6,20.18,50.73,50.73,0,0,0-1.4,5.49,52.25,52.25,0,0,0-.93,7.75v4.69q0,1.13.15,2.25a49.68,49.68,0,0,0,.78,5.49,54,54,0,0,0,13,25.68,62.5,62.5,0,0,0,46.56,20.18,65,65,0,0,0,8.54-.56,62.09,62.09,0,0,0,35.56-17.06,20.62,20.62,0,0,0-2.38-2.56,20.26,20.26,0,0,0-20.74-3.91c-1.16.66-2.36,1.26-3.6,1.81a43,43,0,0,1-5.9,2.1,43.87,43.87,0,0,1-23,0c-13.24-3.63-23.64-13.37-27.38-25.68h98.42a49.68,49.68,0,0,0,.78-5.49c.14-1.52.21-3.05.21-4.6A51.76,51.76,0,0,0,1918.35,357.74Zm-98.42,0a34.33,34.33,0,0,1,2.19-5.49,39.69,39.69,0,0,1,25.19-20.18,43.87,43.87,0,0,1,23,0,39.69,39.69,0,0,1,25.19,20.18,34.33,34.33,0,0,1,2.19,5.49Z"/><path class="cls-4" d="M406.24,93.14V325.51A108.18,108.18,0,0,1,481,222.59l.3-.1a107.83,107.83,0,0,1,11.5-3V163.17c-.21-.35-.42-.71-.61-1.07a65.16,65.16,0,0,0,0-17.79c-.12-.84-.25-1.68-.4-2.51a64.16,64.16,0,0,0-85.54-48.66Z"/><path class="cls-5" d="M608.19,303.33V369.6a65.32,65.32,0,0,0,.61,8.9c.12.84.25,1.68.4,2.5h0a64.15,64.15,0,0,0,85.53,48.66V197.29A108.1,108.1,0,0,1,620,300.22l-.3.1A107.83,107.83,0,0,1,608.19,303.33Z"/><path class="cls-6" d="M572.93,217.31h57.69a64.13,64.13,0,0,0,61.21-45h0a64.41,64.41,0,0,0,0-38.22h0A64.21,64.21,0,0,0,611.52,92h0c-1.13.36-2.23.74-3.32,1.15v88.91A35.3,35.3,0,0,1,577.88,217h0A34.89,34.89,0,0,1,572.93,217.31Z"/><path class="cls-7" d="M406.24,325.51V369.6a64.11,64.11,0,0,0,2.9,19.11,108.24,108.24,0,0,1,80.32-80.31h0c1.1-.27,2.2-.51,3.32-.74a108.84,108.84,0,0,1,21.66-2.16h72.09a107.91,107.91,0,0,0,33.15-5.18l.3-.1a108.1,108.1,0,0,0,74.74-102.93V153.21a63.78,63.78,0,0,1-2.9,19.1h0a64.13,64.13,0,0,1-61.21,45H514.45a107.91,107.91,0,0,0-33.16,5.18l-.3.1a108.18,108.18,0,0,0-74.75,102.92Z"/><path class="cls-8" d="M409.14,388.71a64.18,64.18,0,0,0,80.32,42.1h0c1.12-.35,2.23-.73,3.32-1.14V340.75a35.28,35.28,0,0,1,30.3-34.91h0a35.14,35.14,0,0,1,4.94-.34h-13.6a108.84,108.84,0,0,0-21.66,2.16c-1.12.23-2.22.47-3.32.74h0a108.24,108.24,0,0,0-80.32,80.31Z"/><path class="cls-9" d="M369.15,325.2v44.09a63.79,63.79,0,0,1-2.9,19.11,106.89,106.89,0,0,0-6.46-19.11,108.46,108.46,0,0,0-73.86-61.21c-1.1-.26-2.21-.5-3.32-.73A108.84,108.84,0,0,0,261,305.19H188.86A108.74,108.74,0,0,1,167.21,303a107.21,107.21,0,0,1-11.5-3h0l-.3-.1A108.18,108.18,0,0,1,80.66,197V152.9A64.21,64.21,0,0,0,83.56,172c.53,1.68,1.12,3.34,1.78,5a64.12,64.12,0,0,0,59.43,40H261a108.52,108.52,0,0,1,21,2l.66.13a107.83,107.83,0,0,1,11.5,3l.3.1A108.1,108.1,0,0,1,369.15,325.2Z"/><path class="cls-10" d="M167.21,303v66.27a63.75,63.75,0,0,1-.62,8.9c-.11.84-.24,1.68-.39,2.5h0a64.16,64.16,0,0,1-85.54,48.66V197A108.18,108.18,0,0,0,155.4,299.91l.3.1h0A107.21,107.21,0,0,0,167.21,303Z"/><path class="cls-11" d="M366.25,388.4a64.21,64.21,0,0,1-80.32,42.11h0c-1.13-.36-2.23-.74-3.32-1.15V340.45a35.3,35.3,0,0,0-30.31-34.92h0a34.89,34.89,0,0,0-4.93-.34H261a108.84,108.84,0,0,1,21.66,2.16c1.11.23,2.22.47,3.32.73a108.46,108.46,0,0,1,73.86,61.21A106.89,106.89,0,0,1,366.25,388.4Z"/><path class="cls-12" d="M369.15,152.9V325.2a108.1,108.1,0,0,0-74.74-102.92l-.3-.1a107.83,107.83,0,0,0-11.5-3v-6.94a35.7,35.7,0,0,0-.87-7.79A35.3,35.3,0,0,0,247.35,177H167.21v4.78A35.2,35.2,0,0,0,202.47,217h-57.7a64.12,64.12,0,0,1-59.43-40c-.66-1.62-1.25-3.28-1.78-5a64.13,64.13,0,0,1,61.21-83.22H305A64.11,64.11,0,0,1,369.15,152.9Z"/></svg>