<svg id="Layer_1" data-name="Layer 1" xmlns="http://www.w3.org/2000/svg" xmlns:xlink="http://www.w3.org/1999/xlink" viewBox="0 0 1287.8 1215.59"><defs><style>.cls-1{fill:#001b48;}.cls-2{fill:#018abe;}.cls-3{fill:url(#linear-gradient);}.cls-4{fill:url(#linear-gradient-2);}.cls-5{fill:url(#linear-gradient-3);}.cls-6{fill:url(#linear-gradient-4);}.cls-7{fill:url(#linear-gradient-5);}.cls-8{fill:url(#linear-gradient-6);}.cls-9{fill:url(#linear-gradient-7);}.cls-10{fill:url(#linear-gradient-8);}.cls-11{fill:url(#linear-gradient-9);}</style><linearGradient id="linear-gradient" x1="759.2" y1="446.75" x2="759.2" y2="18.16" gradientUnits="userSpaceOnUse"><stop offset="0" stop-color="#001b48"/><stop offset="0.33" stop-color="#018abe"/><stop offset="0.67" stop-color="#02457a"/><stop offset="1" stop-color="#001b48"/></linearGradient><linearGradient id="linear-gradient-2" x1="1135.85" y1="719.27" x2="1135.85" y2="248.83" gradientUnits="userSpaceOnUse"><stop offset="0" stop-color="#018abe"/><stop offset="0.33" stop-color="#02457a"/><stop offset="0.64" stop-color="#001b48"/><stop offset="1" stop-color="#018abe"/></linearGradient><linearGradient id="linear-gradient-3" x1="1102.97" y1="323.56" x2="1102.97" y2="96.38" gradientUnits="userSpaceOnUse"><stop offset="0" stop-color="#018abe"/><stop offset="0.5" stop-color="#02457a"/><stop offset="1" stop-color="#001b48"/></linearGradient><linearGradient id="linear-gradient-4" x1="678.49" y1="423.27" x2="1216.56" y2="423.27" gradientUnits="userSpaceOnUse"><stop offset="0" stop-color="#018abe"/><stop offset="0.58" stop-color="#02457a"/><stop offset="1" stop-color="#001b48"/></linearGradient><linearGradient id="linear-gradient-5" x1="794.79" y1="708.72" x2="794.79" y2="488.34" xlink:href="#linear-gradient-3"/><linearGradient id="linear-gradient-6" x1="609.31" y1="422.69" x2="71.25" y2="422.69" xlink:href="#linear-gradient-4"/><linearGradient id="linear-gradient-7" x1="151.96" y1="379.72" x2="151.96" y2="751.2" gradientUnits="userSpaceOnUse"><stop offset="0" stop-color="#018abe"/><stop offset="0.5" stop-color="#02457a"/><stop offset="0.96" stop-color="#001b48"/></linearGradient><linearGradient id="linear-gradient-8" x1="493.02" y1="698.92" x2="493.02" y2="477.14" xlink:href="#linear-gradient-3"/><linearGradient id="linear-gradient-9" x1="71.25" y1="303.97" x2="609.31" y2="303.97" xlink:href="#linear-gradient-4"/></defs><path class="cls-1" d="M422.47,862.74a60.55,60.55,0,0,0-117.64,20.18v71.53A20.18,20.18,0,0,0,325,974.63V923.28h80.72v51.35a20.17,20.17,0,0,0,20.18-20.18V882.92A60.52,60.52,0,0,0,422.47,862.74ZM405.73,903.1H325V882.92a40.36,40.36,0,1,1,80.72,0Z"/><path class="cls-1" d="M559.49,943.46v11a20.17,20.17,0,0,1-20.18,20.18V943.46a40.36,40.36,0,0,0-79.67-9.16,40.07,40.07,0,0,0-1.05,9.16v31.17a20.17,20.17,0,0,1-20.18-20.18v-11a60.54,60.54,0,0,1,121.08,0Z"/><path class="cls-1" d="M590,882.92v71.53a20.17,20.17,0,0,1-20.18,20.18V903.1A20.19,20.19,0,0,1,590,882.92Z"/><path class="cls-1" d="M590,842.56a20.17,20.17,0,0,1-20.18,20.18A20.19,20.19,0,0,1,590,842.56Z"/><path class="cls-1" d="M720.07,938.87a28,28,0,0,1-26.87,35.76H600.09a20.19,20.19,0,0,1,20.18-20.18H693.2a7.79,7.79,0,1,0,0-15.58H628.06a28,28,0,1,1,0-56h93.11A20.17,20.17,0,0,1,701,903.1H628.06a7.8,7.8,0,0,0,0,15.59H693.2A28,28,0,0,1,720.07,938.87Z"/><path class="cls-2" d="M781.81,884.26c-.24,21.8-22.5,39.44-50.06,39.73C734.93,903.77,755.5,887.59,781.81,884.26Z"/><path class="cls-2" d="M781.41,974.6c-24.06-3.17-43.25-17.1-48.59-35C757.88,940.27,778.33,955.3,781.41,974.6Z"/><path class="cls-2" d="M850.92,939.6c-5.36,18-24.68,31.93-48.87,35C805.12,955.25,825.72,940.17,850.92,939.6Z"/><path class="cls-2" d="M852,924c-27.7-.18-50.1-17.88-50.33-39.76C828.1,887.48,848.79,903.7,852,924Z"/><path class="cls-1" d="M983,943.46v11a20.17,20.17,0,0,1-20.18,20.18V943.46a40.36,40.36,0,0,0-79.67-9.16,40.07,40.07,0,0,0-1,9.16v31.17a20.17,20.17,0,0,1-20.18-20.18v-11a60.54,60.54,0,0,1,121.08,0Z"/><path class="cls-1" d="M539.87,1147.44H499.51a20.18,20.18,0,0,1-20.18-20.18v-91.71a20.17,20.17,0,0,1,20.18-20.18v111.89h20.18A20.18,20.18,0,0,1,539.87,1147.44Z"/><path class="cls-1" d="M192,1015.37v111.89h0a20.19,20.19,0,0,1-20.18,20.18v-66H91.09v66a20.18,20.18,0,0,1-20.18-20.18V1015.37a20.17,20.17,0,0,1,20.18-20.18v66h80.72v-66A20.18,20.18,0,0,1,192,1015.37Z"/><path class="cls-1" d="M464.45,1075.91a54.56,54.56,0,0,0-11.61-20.18,58,58,0,0,0-6.19-5.94,64.22,64.22,0,0,0-83.17,2.14l-.68.64c-1.06,1-2.09,2.07-3.07,3.16h-.28l-13.65,12.83-.05,0-7.76,7.3-12.42,11.69-.14.13-8.89,8.36-5.83,5.49L296,1115.45h0a39.42,39.42,0,0,1-4.46,4.2h0a41.19,41.19,0,0,1-15,7.6,43.7,43.7,0,0,1-15.94,1.3,42.76,42.76,0,0,1-7-1.3c-13.24-3.63-23.64-13.37-27.38-25.68h63.1l7.82-7.36,24.41-23a55.18,55.18,0,0,0-9.91-15.53,63.79,63.79,0,0,0-93.11,0,54.54,54.54,0,0,0-11.6,20.18,53.16,53.16,0,0,0-1.4,5.49,52.25,52.25,0,0,0-.93,7.75v4.69q0,1.13.15,2.25a52.18,52.18,0,0,0,.78,5.49,54,54,0,0,0,13,25.68A60.92,60.92,0,0,0,244.14,1144a64.93,64.93,0,0,0,20.89,3.42,63.25,63.25,0,0,0,39.91-13.88h0l6.31-5.93h0c.11-.11.22-.23.32-.35h.06l13.93-13.11,12.09-11.37,7.11-6.69,1-.92.05-.05.07-.07,19.83-18.65.52-.49,8.87-8.34h0a35.39,35.39,0,0,1,5.39-5.06,39,39,0,0,1,13.24-6.46h0l.33-.31h.75a43.91,43.91,0,0,1,23,0A39.69,39.69,0,0,1,443,1075.91a34.95,34.95,0,0,1,3.38,20.18c-2,14.86-13.42,27-28.57,31.17a43.91,43.91,0,0,1-23,0,39.81,39.81,0,0,1-24.61-19.07,35,35,0,0,1-4-12.1l-16.46,15.48c.27.65.55,1.3.85,1.94a55.63,55.63,0,0,0,9.11,13.75,62.5,62.5,0,0,0,46.56,20.18,63.2,63.2,0,0,0,40.36-14.25l.71-.6a20.19,20.19,0,0,0,19.47,14.85v-56A51.94,51.94,0,0,0,464.45,1075.91Zm-236.1,0a39.69,39.69,0,0,1,25.19-20.18,43.87,43.87,0,0,1,23,0,39.69,39.69,0,0,1,25.2,20.18,35.65,35.65,0,0,1,2.18,5.49H226.16A35.69,35.69,0,0,1,228.35,1075.91Z"/><path class="cls-1" d="M608.43,1147.44H568.07a20.18,20.18,0,0,1-20.18-20.18v-91.71a20.17,20.17,0,0,1,20.18-20.18v40.36h20.18a20.18,20.18,0,0,1,20.18,20.18H568.07v51.35h20.18A20.18,20.18,0,0,1,608.43,1147.44Z"/><path class="cls-1" d="M737.53,1096.09v31.17a20.18,20.18,0,0,1-20.18,20.18v-51.35a40.36,40.36,0,0,0-80.72,0v51.35a20.19,20.19,0,0,1-20.18-20.18v-91.71a20.18,20.18,0,0,1,20.18-20.18V1051a60.54,60.54,0,0,1,100.9,45.13Z"/><path class="cls-1" d="M987.49,1049.79a64.21,64.21,0,0,0-83.16,2.14l-.68.64-17,16-20.24,19-.13.13-29.47,27.72a39.57,39.57,0,0,1-4.47,4.2,42.2,42.2,0,0,1-26.47,9.14c-22.29,0-40.36-16.7-40.36-37.3s18.07-37.29,40.36-37.29a44,44,0,0,1,9,.92l1.06.24a20.45,20.45,0,0,0,3.86.37,20.18,20.18,0,0,0,18.28-11.63,63.89,63.89,0,0,0-32.18-8.55c-2.12,0-4.22.1-6.28.3-29.66,2.82-53,25.43-54.2,53.3v4.69c1.32,29.81,27.9,53.6,60.48,53.6a63.2,63.2,0,0,0,39.92-13.89l6.31-5.93,14.31-13.47,20.24-19,.07-.07,28.88-27.17a37,37,0,0,1,6.5-6.12,33.53,33.53,0,0,1,12.47-5.72c8.18-1.84,8.18-1.84,12.56-1.84,22.29,0,40.36,16.69,40.36,37.29s-18.07,37.3-40.36,37.3c-20.68,0-37.74-14.39-40.08-32.93l-16.51,15.54c8.68,21.07,30.74,36,56.59,36a63.18,63.18,0,0,0,40.36-14.25l.72-.6a20.19,20.19,0,0,0,19.46,14.85v-56C1007.67,1074.92,999.88,1060,987.49,1049.79Z"/><path class="cls-1" d="M1103.75,1038.89a20.19,20.19,0,0,1-19.91,16.84,40.36,40.36,0,0,0-40.36,40.36v31.17a20.16,20.16,0,0,1-20.18,20.18V1035.55a20.18,20.18,0,0,1,19.71,15.84l.47-.43a60.7,60.7,0,0,1,60.27-12.07Z"/><path class="cls-1" d="M1215.91,1081.4a48.5,48.5,0,0,0-1.4-5.49,54.4,54.4,0,0,0-11.6-20.18,63.79,63.79,0,0,0-93.11,0,54.4,54.4,0,0,0-11.6,20.18,51.75,51.75,0,0,0-2.33,13.24v4.69q0,1.13.15,2.25a49.68,49.68,0,0,0,.78,5.49,54,54,0,0,0,13,25.68,62.5,62.5,0,0,0,46.56,20.18,65,65,0,0,0,8.54-.56,62.09,62.09,0,0,0,35.56-17.06,20.62,20.62,0,0,0-2.38-2.56,20.21,20.21,0,0,0-20.74-3.9q-1.74,1-3.6,1.8a43,43,0,0,1-5.9,2.1,43.87,43.87,0,0,1-23,0c-13.24-3.63-23.64-13.37-27.38-25.68h98.42a49.68,49.68,0,0,0,.78-5.49c.14-1.52.21-3,.21-4.6A51.76,51.76,0,0,0,1215.91,1081.4Zm-98.42,0a34.33,34.33,0,0,1,2.19-5.49,39.69,39.69,0,0,1,25.19-20.18,43.87,43.87,0,0,1,23,0,39.69,39.69,0,0,1,25.19,20.18,34.33,34.33,0,0,1,2.19,5.49Z"/><path class="cls-3" d="M678.49,91.63V525a201.68,201.68,0,0,1,139.41-192l.56-.18a200.43,200.43,0,0,1,21.45-5.62v-105c-.39-.67-.78-1.33-1.15-2a120.17,120.17,0,0,0,0-33.17c-.21-1.58-.45-3.14-.74-4.69A119.62,119.62,0,0,0,678.49,91.63Z"/><path class="cls-4" d="M1055.14,483.65V607.26a119.19,119.19,0,0,0,1.15,16.58c.21,1.57.45,3.14.74,4.68h0a119.62,119.62,0,0,0,159.53,90.75V285.88a201.69,201.69,0,0,1-139.4,192q-.29.11-.57.18A197.48,197.48,0,0,1,1055.14,483.65Z"/><path class="cls-5" d="M989.37,323.22H1097a119.63,119.63,0,0,0,114.16-83.93h0a120,120,0,0,0,0-71.27h0a119.67,119.67,0,0,0-149.78-78.51h0q-3.15,1-6.2,2.14V257.46a65.8,65.8,0,0,1-56.52,65.12h0A65.15,65.15,0,0,1,989.37,323.22Z"/><path class="cls-6" d="M678.49,525v82.24a119.14,119.14,0,0,0,5.41,35.63A199,199,0,0,1,696,607.25,202.17,202.17,0,0,1,833.71,493.11h0c2-.51,4.11-1,6.19-1.38a202.9,202.9,0,0,1,40.39-4h134.46a202.72,202.72,0,0,0,40.38-4,197.48,197.48,0,0,0,21.45-5.62q.29-.07.57-.18a201.69,201.69,0,0,0,139.4-192V203.65a119.14,119.14,0,0,1-5.41,35.63h0A119.63,119.63,0,0,1,1097,323.22H880.3a202.9,202.9,0,0,0-40.39,4,200.43,200.43,0,0,0-21.45,5.62l-.56.18A201.68,201.68,0,0,0,678.49,525Z"/><path class="cls-7" d="M683.9,642.89a119.66,119.66,0,0,0,149.81,78.52h0c2.09-.64,4.16-1.35,6.19-2.13V553.45a65.78,65.78,0,0,1,56.52-65.11h0a63.6,63.6,0,0,1,9.21-.65H880.3a202.9,202.9,0,0,0-40.39,4c-2.08.42-4.14.87-6.19,1.38h0A202.17,202.17,0,0,0,696,607.25,199,199,0,0,0,683.9,642.89Z"/><path class="cls-8" d="M609.31,524.44v82.24a119.45,119.45,0,0,1-5.4,35.63,199.07,199.07,0,0,0-12.07-35.64A202.19,202.19,0,0,0,454.09,492.52q-3.07-.74-6.2-1.37a202.67,202.67,0,0,0-40.39-4H273.05a201.91,201.91,0,0,1-40.38-4,196.29,196.29,0,0,1-21.45-5.62h0l-.56-.18a201.61,201.61,0,0,1-139.39-192V203.07a119.53,119.53,0,0,0,5.4,35.65c1,3.14,2.08,6.23,3.33,9.25a119.57,119.57,0,0,0,110.84,74.67H407.5a202.19,202.19,0,0,1,39.16,3.81c.41.07.83.15,1.23.24a196.29,196.29,0,0,1,21.45,5.62,2.7,2.7,0,0,1,.57.18,201.59,201.59,0,0,1,139.4,192Z"/><path class="cls-9" d="M232.67,483.07V606.68a121,121,0,0,1-1.15,16.59c-.22,1.56-.45,3.13-.74,4.67h0A119.67,119.67,0,0,1,71.25,718.72V285.3a201.61,201.61,0,0,0,139.39,192l.56.18h0A196.29,196.29,0,0,0,232.67,483.07Z"/><path class="cls-10" d="M603.91,642.31A119.73,119.73,0,0,1,454.1,720.85h0c-2.1-.66-4.16-1.36-6.2-2.13V552.88a65.8,65.8,0,0,0-56.53-65.12h0a64.76,64.76,0,0,0-9.19-.65H407.5a202.67,202.67,0,0,1,40.39,4q3.12.63,6.2,1.37A202.19,202.19,0,0,1,591.84,606.67,199.07,199.07,0,0,1,603.91,642.31Z"/><path class="cls-11" d="M609.31,203.07V524.44a201.59,201.59,0,0,0-139.4-192,2.7,2.7,0,0,0-.57-.18,196.29,196.29,0,0,0-21.45-5.62V313.74a65.61,65.61,0,0,0-28.37-54.1A65.43,65.43,0,0,0,382.13,248H232.67v8.91a65.7,65.7,0,0,0,65.76,65.76H190.82A119.57,119.57,0,0,1,80,248c-1.25-3-2.35-6.11-3.33-9.25A119.59,119.59,0,0,1,190.82,83.5H489.74A119.57,119.57,0,0,1,609.31,203.07Z"/></svg>