<svg id="Layer_1" data-name="Layer 1" xmlns="http://www.w3.org/2000/svg" viewBox="0 0 2000 637.5"><defs><style>.cls-1{fill:#001b48;}.cls-2{fill:#018abe;}</style></defs><path class="cls-1" d="M256.31,114.28A101.33,101.33,0,0,0,59.42,148.05V267.77A33.78,33.78,0,0,0,93.2,301.55v-86H228.3v86a33.78,33.78,0,0,0,33.78-33.78V148.05A101,101,0,0,0,256.31,114.28Zm-28,67.55H93.2V148.05a67.55,67.55,0,1,1,135.1,0Z"/><path class="cls-1" d="M485.65,249.38v18.39a33.77,33.77,0,0,1-33.77,33.78V249.38a67.56,67.56,0,1,0-135.11,0v52.17A33.77,33.77,0,0,1,283,267.77V249.38a101.33,101.33,0,1,1,202.65,0Z"/><path class="cls-1" d="M536.66,148.05V267.77a33.78,33.78,0,0,1-33.78,33.78V181.83A33.78,33.78,0,0,1,536.66,148.05Z"/><path class="cls-1" d="M536.66,80.5a33.79,33.79,0,0,1-33.78,33.78A33.78,33.78,0,0,1,536.66,80.5Z"/><path class="cls-1" d="M754.42,241.69a46.82,46.82,0,0,1-45,59.86H553.61a33.77,33.77,0,0,1,33.77-33.78H709.44a13,13,0,1,0,0-26.08h-109a46.82,46.82,0,1,1,0-93.64H756.26a33.77,33.77,0,0,1-33.77,33.78H600.42a13,13,0,1,0,0,26.08h109A46.83,46.83,0,0,1,754.42,241.69Z"/><path class="cls-2" d="M857.76,150.29c-.41,36.48-37.66,66-83.79,66.49C779.28,183,813.71,155.86,857.76,150.29Z"/><path class="cls-2" d="M857.09,301.49c-40.28-5.3-72.39-28.61-81.34-58.58C817.7,244,851.93,269.19,857.09,301.49Z"/><path class="cls-2" d="M973.42,242.9c-9,30.08-41.29,53.46-81.79,58.65C896.78,269.1,931.25,243.86,973.42,242.9Z"/><path class="cls-2" d="M975.2,216.78c-46.36-.3-83.86-29.93-84.23-66.54C935.23,155.68,969.87,182.83,975.2,216.78Z"/><path class="cls-1" d="M1194.45,249.38v18.39a33.79,33.79,0,0,1-33.78,33.78V249.38a67.55,67.55,0,1,0-135.1,0v52.17a33.79,33.79,0,0,1-33.78-33.78V249.38a101.33,101.33,0,1,1,202.66,0Z"/><path class="cls-1" d="M844.33,590.78H776.78A33.79,33.79,0,0,1,743,557V403.5a33.78,33.78,0,0,1,33.78-33.77V557h33.78A33.77,33.77,0,0,1,844.33,590.78Z"/><path class="cls-1" d="M262.17,369.73V557h-.09a33.78,33.78,0,0,1-33.78,33.78V480.25H93.2V590.78A33.79,33.79,0,0,1,59.42,557V369.73A33.78,33.78,0,0,1,93.2,336V446.48H228.3V336a33.78,33.78,0,0,1,33.78,33.78Z"/><path class="cls-1" d="M718.1,471.06a91.16,91.16,0,0,0-19.42-33.78,99.53,99.53,0,0,0-10.37-9.94,105.81,105.81,0,0,0-67.55-23.84c-28,0-53.31,10.48-71.65,27.43L548,432c-1.78,1.7-3.49,3.47-5.13,5.29h-.48l-22.84,21.48-.09.09-13,12.21-20.79,19.56-.23.22-14.88,14-9.77,9.2-24.67,23.2h0a66.35,66.35,0,0,1-7.47,7l0,0A69.33,69.33,0,0,1,403.55,557a72.62,72.62,0,0,1-19.22,2.57,73.69,73.69,0,0,1-7.47-.38A72,72,0,0,1,365.1,557c-22.16-6.07-39.57-22.36-45.82-43h105.6L438,501.71l40.85-38.43a92,92,0,0,0-16.57-26c-18.59-20.64-46.6-33.78-77.92-33.78S325,416.64,306.41,437.28A91.19,91.19,0,0,0,287,471.06a88.31,88.31,0,0,0-2.34,9.19,86.71,86.71,0,0,0-1.55,13v7.84c.05,1.26.13,2.52.25,3.77a87.41,87.41,0,0,0,1.3,9.2,90.36,90.36,0,0,0,21.77,43,101.77,101.77,0,0,0,43,28.06,108.85,108.85,0,0,0,35,5.72,105.81,105.81,0,0,0,66.8-23.24h0l10.56-9.94h0l.54-.59h.09l23.32-21.93,20.23-19,11.91-11.2,1.63-1.54.09-.08.11-.11,33.19-31.22.88-.82,14.84-14h0a58.89,58.89,0,0,1,9-8.48,65,65,0,0,1,22.16-10.8h0l.56-.53h1.25a73.51,73.51,0,0,1,38.46,0c18.74,5.14,34.09,17.59,42.16,33.78a58.16,58.16,0,0,1,6.16,26.08,57.53,57.53,0,0,1-.51,7.69C684.5,529.7,665.36,550.06,640,557a73.23,73.23,0,0,1-38.46,0c-18-4.93-32.9-16.63-41.19-31.91a58.41,58.41,0,0,1-6.62-20.26l-27.56,25.92c.45,1.09.92,2.17,1.42,3.24a92.68,92.68,0,0,0,15.26,23c18.59,20.64,46.59,33.78,77.92,33.78a105.76,105.76,0,0,0,67.55-23.85l1.2-1a33.79,33.79,0,0,0,32.58,24.85V497.14A86.81,86.81,0,0,0,718.1,471.06Zm-395.16,0c8.07-16.19,23.41-28.64,42.16-33.78a73.47,73.47,0,0,1,38.45,0c18.75,5.14,34.1,17.59,42.16,33.78a57.93,57.93,0,0,1,3.67,9.19H319.28A58.85,58.85,0,0,1,322.94,471.06Z"/><path class="cls-1" d="M959.09,590.78H891.54A33.78,33.78,0,0,1,857.76,557V403.5a33.77,33.77,0,0,1,33.78-33.77v67.55h33.77a33.78,33.78,0,0,1,33.78,33.78H891.54V557h33.77A33.78,33.78,0,0,1,959.09,590.78Z"/><path class="cls-1" d="M1175.17,504.83V557a33.78,33.78,0,0,1-33.77,33.78V504.83a67.56,67.56,0,0,0-135.11,0v85.95A33.78,33.78,0,0,1,972.52,557V403.5a33.77,33.77,0,0,1,33.77-33.77V429.3a101.33,101.33,0,0,1,168.88,75.53Z"/><path class="cls-1" d="M1593.54,427.34A105.81,105.81,0,0,0,1526,403.5c-28,0-53.31,10.48-71.65,27.43l-1.13,1.06-28.46,26.77-33.86,31.86-.23.22-49.32,46.39a65.63,65.63,0,0,1-7.48,7,70.6,70.6,0,0,1-44.3,15.3c-37.31,0-67.55-28-67.55-62.43s30.24-62.42,67.55-62.42a72.84,72.84,0,0,1,15,1.55q.89.18,1.77.39a33.81,33.81,0,0,0,37.06-18.84,107,107,0,0,0-53.86-14.32c-3.56,0-7.06.17-10.52.5-49.63,4.73-88.64,42.57-90.72,89.22v7.84c2.22,49.9,46.7,89.72,101.24,89.72a105.82,105.82,0,0,0,66.81-23.24l10.56-9.94,24-22.53,33.86-31.86a1,1,0,0,0,.11-.11l48.36-45.49a62,62,0,0,1,10.87-10.23,56.34,56.34,0,0,1,20.86-9.57c13.7-3.09,13.7-3.09,21-3.09,37.31,0,67.55,27.95,67.55,62.42s-30.24,62.43-67.55,62.43c-34.63,0-63.17-24.08-67.09-55.11l-27.64,26c14.53,35.27,51.47,60.33,94.73,60.33a105.76,105.76,0,0,0,67.55-23.85l1.2-1a33.79,33.79,0,0,0,32.58,24.85V497.14C1627.32,469.41,1614.27,444.49,1593.54,427.34Z"/><path class="cls-1" d="M1788.12,409.11a33.79,33.79,0,0,1-33.32,28.17,67.55,67.55,0,0,0-67.55,67.55V557a33.75,33.75,0,0,1-33.77,33.78V403.5a33.78,33.78,0,0,1,33,26.51l.78-.71a101.46,101.46,0,0,1,100.87-20.19Z"/><path class="cls-1" d="M1975.86,480.25a85.9,85.9,0,0,0-2.35-9.19,91,91,0,0,0-19.42-33.78c-18.58-20.64-46.59-33.78-77.92-33.78s-59.33,13.14-77.92,33.78a91.3,91.3,0,0,0-19.42,33.78,87,87,0,0,0-3.9,22.16v7.84c.06,1.26.14,2.52.25,3.77a87.42,87.42,0,0,0,1.31,9.2,90.35,90.35,0,0,0,21.76,43c18.59,20.64,46.6,33.78,77.92,33.78a110.45,110.45,0,0,0,14.3-.93A104,104,0,0,0,1950,561.29a33.79,33.79,0,0,0-38.68-10.82q-2.92,1.65-6,3a69.56,69.56,0,0,1-9.87,3.51,73.19,73.19,0,0,1-38.45,0c-22.17-6.07-39.58-22.36-45.83-43h164.74a87.41,87.41,0,0,0,1.3-9.2c.23-2.53.34-5.1.34-7.69A87.23,87.23,0,0,0,1975.86,480.25Zm-164.74,0a58.46,58.46,0,0,1,3.66-9.19c8.07-16.19,23.42-28.64,42.17-33.78a73.47,73.47,0,0,1,38.45,0c18.75,5.14,34.09,17.59,42.16,33.78a58.46,58.46,0,0,1,3.66,9.19Z"/></svg>